<svg width="49" height="27" viewBox="0 0 49 27" fill="none" xmlns="http://www.w3.org/2000/svg">
<path fill-rule="evenodd" clip-rule="evenodd" d="M21.0211 23.3878C24.6122 21.0281 27.5569 17.6426 28.9263 13.8805C30.2956 10.1184 29.8152 6.73295 27.9419 4.37317C31.1563 2.26109 34.8901 0.970703 38.4739 0.970703C46.0612 0.970703 50.1084 6.75074 47.5134 13.8805C44.9184 21.0103 36.6636 26.7903 29.0763 26.7903C25.4925 26.7903 22.6981 25.4999 21.0211 23.3878ZM21.0211 23.3878C17.8067 25.4999 14.0729 26.7903 10.4891 26.7903C2.9018 26.7903 -1.14543 21.0103 1.44959 13.8805C4.04461 6.75074 12.2994 0.970703 19.8867 0.970703C23.4704 0.970703 26.2649 2.26109 27.9419 4.37317C24.3508 6.73295 21.4061 10.1184 20.0367 13.8805C18.6674 17.6426 19.1478 21.0281 21.0211 23.3878Z" fill="white"/>
</svg>
